<svg width="36" height="36" viewBox="0 0 36 36" fill="none" xmlns="http://www.w3.org/2000/svg">
<circle cx="18" cy="18" r="18" fill="#F3FAE7"/>
<path d="M25.7846 14.2567C25.7846 14.0056 25.6842 13.7545 25.5033 13.5737L24.1373 12.2076C23.9565 12.0268 23.7054 11.9263 23.4542 11.9263C23.2031 11.9263 22.952 12.0268 22.7712 12.2076L16.1819 18.8069L13.2288 15.8437C13.048 15.6629 12.7969 15.5625 12.5458 15.5625C12.2946 15.5625 12.0435 15.6629 11.8627 15.8437L10.4967 17.2098C10.3158 17.3906 10.2154 17.6417 10.2154 17.8929C10.2154 18.144 10.3158 18.3951 10.4967 18.5759L14.1328 22.2121L15.4989 23.5781C15.6797 23.7589 15.9308 23.8594 16.1819 23.8594C16.433 23.8594 16.6842 23.7589 16.865 23.5781L18.231 22.2121L25.5033 14.9397C25.6842 14.7589 25.7846 14.5078 25.7846 14.2567Z" fill="#87CE13"/>
</svg>
