<svg width="578" height="350" viewBox="0 0 578 350" fill="none" xmlns="http://www.w3.org/2000/svg">
<path d="M557 349L542.769 263L483 267.3L495.096 349H557Z" fill="white" stroke="black" strokeWidth="1.42431"/>
<path d="M499.272 267.366C500.696 273.776 503.687 286.594 504.257 286.594C504.827 286.594 517.788 289.918 524.197 291.579L542.001 280.185L539.153 264.518" stroke="black" strokeWidth="1.42431" strokeLinejoin="round"/>
<path d="M429 349V251L491 270.314L489.558 349H429Z" fill="white" stroke="black" strokeWidth="1.42431"/>
<path d="M426.357 248.763L427.347 146.279L433.044 142.719L437.697 256.7C431.46 253.866 428.058 250.464 426.357 248.763Z" fill="white" stroke="black" strokeWidth="1.42431" strokeLinejoin="round"/>
<path d="M448.712 51.5838C436.178 53.293 427.11 70.3372 424.499 77.9335L442.302 86.4793C447.179 84.0412 455.833 80.0699 455.833 80.0699C455.833 80.0699 465.007 70.98 465.803 69.3876L463.667 57.281C463.667 53.8627 460.818 53.0081 459.394 53.0081C458.255 51.2989 455.596 51.3464 454.409 51.5838C452.273 49.4473 448.551 51.6065 448.712 51.5838Z" fill="white" stroke="black" strokeWidth="1.42431" strokeLinejoin="round"/>
<path d="M455.12 72.2362L460.817 65.8268" stroke="black" strokeWidth="1.42431" strokeLinecap="round" strokeLinejoin="round"/>
<path d="M451.559 62.9782C452.508 61.5539 454.977 58.278 457.256 56.5688" stroke="black" strokeWidth="1.42431" strokeLinecap="round" strokeLinejoin="round"/>
<path d="M447.286 59.4174C448.473 57.281 451.559 52.7232 454.407 51.5837" stroke="black" strokeWidth="1.42431" strokeLinecap="round" strokeLinejoin="round"/>
<path d="M443.014 57.281C443.726 56.094 445.862 53.2929 448.711 51.5837" stroke="black" strokeWidth="1.42431" strokeLinecap="round" strokeLinejoin="round"/>
<path d="M416.337 87.5993L423.637 77.4919C424.257 76.6341 425.411 76.359 426.351 76.8452L442.548 85.2232C443.518 85.725 443.954 86.8774 443.558 87.8952L439.768 97.641L416.337 87.5993Z" fill="white" stroke="black" strokeWidth="1.42431" strokeLinejoin="round"/>
<ellipse cx="454.406" cy="33.0678" rx="4.98507" ry="5.69723" stroke="black" strokeWidth="1.42431"/>
<path d="M457.968 35.9164C455.357 38.765 451.559 44.6047 457.256 45.1744C462.953 45.7441 460.104 39.2398 457.968 35.9164Z" fill="black" stroke="black" strokeWidth="1.42431"/>
<path d="M457.968 35.2041C461.44 12.6364 473.872 10.2787 481.469 11.7031C486.596 11.7921 491.676 15.5383 493.575 17.4003V75.0847L470.074 80.7819V69.3875C456.543 70.8118 455.118 53.7202 457.968 35.2041Z" fill="white" stroke="black" strokeWidth="1.42431"/>
<path d="M475.06 53.008C481.469 50.8716 484.318 44.4622 480.757 40.9014C477.909 38.0528 474.348 40.1892 472.924 41.6135C470.075 35.3466 472.211 29.9818 473.635 28.0827C453.695 24.0946 458.205 18.3499 462.953 15.9761C458.395 10.2789 464.378 9.80409 467.938 10.2789C466.039 7.43024 465.232 1.59056 477.196 1.02084C489.161 0.45112 503.546 11.7031 509.243 17.4004C515.51 10.5637 513.754 17.8751 512.092 22.3854C521.777 26.9432 516.128 29.0322 512.092 29.507C509.243 48.0229 502.122 68.6754 487.879 68.6754C476.484 68.6754 474.585 58.2305 475.06 53.008Z" fill="black"/>
<path d="M472.924 41.6135C470.075 35.3466 472.211 29.9818 473.635 28.0827C453.695 24.0946 458.205 18.3499 462.953 15.9761C458.395 10.2789 464.378 9.80409 467.938 10.2789C466.039 7.43024 465.232 1.59056 477.196 1.02084C489.161 0.45112 503.546 11.7031 509.243 17.4004C515.51 10.5637 513.754 17.8751 512.092 22.3854C521.777 26.9432 516.128 29.0322 512.092 29.507C509.243 48.0229 502.122 68.6754 487.879 68.6754C476.484 68.6754 474.585 58.2305 475.06 53.008" stroke="black" strokeWidth="1.42478"/>
<path d="M414.759 88.1829L376.783 150.573L399.572 171.938L445.862 97.1615L420.046 86.4575C418.099 85.6504 415.855 86.3829 414.759 88.1829Z" fill="white" stroke="black" strokeWidth="1.42431"/>
<path d="M471.499 44.4621C473.635 40.9014 477.338 38.0528 480.757 40.9013C485.399 44.7698 478.857 50.8715 474.347 53.7201" stroke="black" strokeWidth="1.42431" strokeLinecap="round"/>
<path d="M447.286 264.518V286.594L466.514 294.428L486.454 286.594V267.366" stroke="black" strokeWidth="1.42431" strokeLinejoin="round"/>
<path d="M436.604 253.123V348.552" stroke="black" strokeWidth="1.42431" strokeLinejoin="round"/>
<path d="M495.712 72.9484C500.27 72.9484 503.309 79.5951 504.258 82.9185H516.678C521.771 82.9185 526.477 85.6387 529.02 90.0525L564.799 152.17C571.455 163.724 569.204 178.349 559.383 187.368L541.29 203.985L556.957 258.82C553.159 262.144 538.441 270.927 497.849 274.488C459.553 277.847 439.215 262.123 433.755 255.951L430.194 148.416L403.079 169.934C395.367 176.055 384.099 174.454 378.397 166.428C373.399 159.395 374.383 149.755 380.783 143.969C405.289 121.815 441.203 90.6091 446.574 87.1914C452.841 83.2034 460.105 82.6811 462.953 82.9185C462.953 82.2064 463.381 80.3548 465.09 78.6456C467.226 76.5091 490.015 72.9484 495.712 72.9484Z" fill="white" stroke="black" strokeWidth="1.42431"/>
<path d="M452.984 226.774C444.2 218.94 427.346 206.548 430.195 219.652" stroke="black" strokeWidth="1.42431"/>
<path d="M533.456 139.891C533.93 145.113 535.45 160.401 537.728 179.771" stroke="black" strokeWidth="1.42431"/>
<path d="M472.924 41.6136L450.847 29.507" stroke="black" strokeWidth="1.42431" strokeLinecap="round"/>
<path d="M406 341H326V349H406V341Z" fill="white" stroke="black" strokeWidth="1.42431" strokeLinecap="round"/>
<path d="M359.413 311.812L339.714 286L319 303.143L329.714 341H404V339.005C404 336.291 402.457 333.813 400.021 332.615L361.931 313.882C360.943 313.396 360.081 312.687 359.413 311.812Z" fill="white" stroke="black" strokeWidth="1.42431" strokeLinecap="round"/>
<path d="M280.318 276.007L171.359 320.873L157.828 296.66L273.277 208.509L350.109 286.689L312.365 310.903L280.318 276.007Z" fill="white" stroke="black" strokeWidth="1.42431" strokeLinecap="round"/>
<path d="M373 341H292V349H373V341Z" fill="white" stroke="black" strokeWidth="1.42431" strokeLinecap="round"/>
<path d="M325.692 310.68L316.818 292L292 304.971L296.255 341H370V338.917C370 336.219 368.475 333.753 366.062 332.547L328.941 313.994C327.518 313.283 326.375 312.117 325.692 310.68Z" fill="white" stroke="black" strokeWidth="1.42431" strokeLinecap="round"/>
<path d="M134.327 294.887V263.188L202.694 231.141L241.187 206.921C254.803 198.354 272.807 202.753 280.937 216.635L324.472 290.962L275.334 322.297L244.711 271.022L177.721 317.574C167.624 324.591 154.105 324.09 144.555 316.347C138.085 311.101 134.327 303.216 134.327 294.887Z" fill="white" stroke="black" strokeWidth="1.42431" strokeLinecap="round"/>
<path d="M151.946 267.473L134.371 278.812" stroke="black" strokeWidth="1.45143" strokeLinecap="round"/>
<path d="M267.533 133.025L256.224 157.411L269.881 168.494L273.624 161.914C280.081 159.668 284.559 149.924 284.588 146.395L287.437 144.259L287.571 144.932C287.897 146.56 289.424 147.66 291.071 147.454C292.656 147.256 293.846 145.908 293.846 144.311L293.846 139.986L293.846 133.655C293.846 131.055 292.662 128.596 290.63 126.975L289.573 126.132L294.062 122.439C294.943 121.715 295.276 120.516 294.895 119.442C294.343 117.883 292.536 117.178 291.074 117.951L272.545 127.745C270.342 128.91 268.581 130.765 267.533 133.025Z" fill="white"/>
<path d="M281.344 132.084L289.573 126.132M289.573 126.132L294.062 122.439C294.943 121.715 295.276 120.516 294.895 119.442V119.442C294.343 117.883 292.536 117.178 291.074 117.951L272.545 127.745C270.342 128.91 268.581 130.765 267.533 133.025L256.224 157.411L269.881 168.494L273.624 161.914C280.081 159.668 284.559 149.924 284.588 146.395L287.437 144.259L287.571 144.932C287.897 146.56 289.424 147.66 291.071 147.454V147.454C292.656 147.256 293.846 145.908 293.846 144.311L293.846 139.986L293.846 133.655C293.846 131.055 292.662 128.596 290.63 126.975L289.573 126.132Z" stroke="black" strokeWidth="1.42431" strokeLinecap="round" strokeLinejoin="round"/>
<path d="M267.499 139.986C271.148 139.557 279.845 136.992 285.689 132.292C286.7 131.479 288.183 131.471 289.1 132.389V132.389C290.105 133.394 289.994 135.057 288.91 135.977C283.632 140.464 275.974 148.534 277.469 153.517" stroke="black" strokeWidth="1.42431" strokeLinecap="round" strokeLinejoin="round"/>
<path d="M180.945 155.845C196.741 147.924 187.73 121.979 181.25 109.996L152.277 113.686L154.967 139.898C153.114 135.793 148.261 132.536 145.395 137.301C141.723 143.405 151.658 149.544 156.473 147.618C157.158 156.361 155.048 165.619 154.309 169.18C167.475 174.701 176.463 174.611 180.659 171.317L180.945 155.845Z" fill="white" stroke="black" strokeWidth="1.42431" strokeLinejoin="round"/>
<path d="M171.275 145.383C172.577 146.442 175.988 148.049 179.214 146" stroke="black" strokeWidth="1.42431" strokeLinecap="round"/>
<path d="M166.916 130.797C167.527 129.779 169.473 127.814 172.365 128.09" stroke="black" strokeWidth="1.42431" strokeLinecap="round"/>
<path d="M185.343 126.122C184.404 125.396 182.063 124.946 180.011 125.873" stroke="black" strokeWidth="1.42431" strokeLinecap="round"/>
<path d="M179.177 131.686C181.829 134.277 185.434 139.634 178.633 140.332" stroke="black" strokeWidth="1.42431" strokeLinecap="round"/>
<path d="M156.544 120.407C162.866 131.785 158.809 137.833 155.673 139.826C151.4 131.673 145.808 134.395 144.682 137.374C133.143 125.386 140.122 118.513 144.7 116.611C145.643 97.9014 185.369 87.3807 190.457 109.051C194.527 126.388 169.544 123.845 156.544 120.407Z" fill="black"/>
<path d="M156.543 120.407C169.543 123.845 194.527 126.388 190.456 109.051" stroke="black" strokeWidth="1.42431"/>
<ellipse cx="172.694" cy="135.074" rx="1.06823" ry="1.42431" transform="rotate(-28.9573 172.694 135.074)" fill="black"/>
<ellipse cx="184.401" cy="132.607" rx="1.06823" ry="1.42431" transform="rotate(-28.9573 184.401 132.607)" fill="black"/>
<path d="M169.311 155.143C170.873 156.414 175.371 158.386 180.864 156.104" stroke="black" strokeWidth="1.42431" strokeLinecap="round"/>
<path fillRule="evenodd" clipRule="evenodd" d="M243.925 211.819L276.638 169.54L254.089 152.093L228.046 185.75L193.069 164.24L193.054 164.265C190.476 162.583 186.505 161.497 180.657 162.374V169.496C176.859 170.92 166.129 171.917 153.596 164.511L152.171 169.496C144.812 169.971 132.23 173.057 127.244 180.89C122.925 187.679 120.712 220.14 120.199 247.682C120.057 255.31 124.015 262.397 130.489 266.434C138.02 271.131 147.63 270.868 154.893 265.767L202.733 232.165L199.819 200.118L225.07 215.647C229.182 218.176 234.118 218.238 238.149 216.246C240.355 215.328 242.359 213.843 243.925 211.819Z" fill="white"/>
<path d="M276.638 169.54L277.202 169.976L277.637 169.413L277.074 168.977L276.638 169.54ZM243.925 211.819L243.361 211.383L243.925 211.819ZM254.089 152.093L254.525 151.529L253.962 151.093L253.526 151.657L254.089 152.093ZM228.046 185.75L227.673 186.357L228.218 186.692L228.61 186.186L228.046 185.75ZM193.069 164.24L193.442 163.633L192.836 163.26L192.462 163.867L193.069 164.24ZM193.054 164.265L192.664 164.861L193.277 165.261L193.66 164.638L193.054 164.265ZM180.657 162.374L180.552 161.67L179.945 161.761V162.374H180.657ZM180.657 169.496L180.907 170.163L181.369 169.989V169.496H180.657ZM153.596 164.511L153.958 163.898L153.164 163.429L152.911 164.315L153.596 164.511ZM152.171 169.496L152.217 170.207L152.718 170.174L152.856 169.692L152.171 169.496ZM127.244 180.89L127.845 181.273L127.244 180.89ZM120.199 247.682L119.487 247.668L120.199 247.682ZM130.489 266.434L130.866 265.83L130.489 266.434ZM154.893 265.767L155.302 266.35L154.893 265.767ZM202.733 232.165L203.142 232.748L203.479 232.511L203.442 232.101L202.733 232.165ZM199.819 200.118L200.192 199.511L198.981 198.766L199.11 200.182L199.819 200.118ZM225.07 215.647L225.443 215.04L225.07 215.647ZM238.149 216.246L237.875 215.588L237.854 215.597L237.833 215.607L238.149 216.246ZM276.075 169.104L243.361 211.383L244.488 212.255L277.202 169.976L276.075 169.104ZM253.654 152.656L276.203 170.103L277.074 168.977L254.525 151.529L253.654 152.656ZM228.61 186.186L254.653 152.528L253.526 151.657L227.483 185.315L228.61 186.186ZM228.419 185.144L193.442 163.633L192.696 164.846L227.673 186.357L228.419 185.144ZM192.462 163.867L192.447 163.892L193.66 164.638L193.676 164.613L192.462 163.867ZM193.443 163.668C190.691 161.873 186.535 160.773 180.552 161.67L180.763 163.079C186.474 162.222 190.262 163.293 192.664 164.861L193.443 163.668ZM179.945 162.374V169.496H181.369V162.374H179.945ZM180.407 168.829C176.828 170.171 166.323 171.204 153.958 163.898L153.233 165.124C165.936 172.63 176.89 171.669 180.907 170.163L180.407 168.829ZM152.911 164.315L151.486 169.3L152.856 169.692L154.28 164.706L152.911 164.315ZM152.125 168.785C148.384 169.027 143.327 169.929 138.561 171.769C133.808 173.604 129.254 176.407 126.644 180.508L127.845 181.273C130.22 177.54 134.449 174.883 139.074 173.098C143.686 171.317 148.599 170.44 152.217 170.207L152.125 168.785ZM126.644 180.508C125.48 182.336 124.514 185.768 123.693 190.187C122.865 194.645 122.165 200.223 121.585 206.437C120.426 218.867 119.744 233.886 119.487 247.668L120.911 247.695C121.168 233.935 121.848 218.953 123.003 206.569C123.581 200.377 124.276 194.846 125.094 190.447C125.918 186.01 126.849 182.839 127.845 181.273L126.644 180.508ZM119.487 247.668C119.34 255.554 123.432 262.872 130.112 267.038L130.866 265.83C124.598 261.921 120.774 255.065 120.911 247.695L119.487 247.668ZM130.112 267.038C137.886 271.887 147.805 271.616 155.302 266.35L154.484 265.184C147.455 270.121 138.154 270.376 130.866 265.83L130.112 267.038ZM155.302 266.35L203.142 232.748L202.323 231.583L154.484 265.184L155.302 266.35ZM203.442 232.101L200.529 200.053L199.11 200.182L202.023 232.23L203.442 232.101ZM199.446 200.724L224.697 216.253L225.443 215.04L200.192 199.511L199.446 200.724ZM224.697 216.253C229.027 218.916 234.223 218.981 238.465 216.884L237.833 215.607C234.013 217.496 229.338 217.436 225.443 215.04L224.697 216.253ZM243.361 211.383C241.873 213.306 239.97 214.717 237.875 215.588L238.422 216.903C240.739 215.939 242.844 214.379 244.488 212.255L243.361 211.383Z" fill="black"/>
<path d="M287.439 144.971V139.986" stroke="black" strokeWidth="1.42431" strokeLinecap="round" strokeLinejoin="round"/>
<path d="M183.464 218.323L192.722 236.127L203.545 227.583C205.255 226.232 206.253 224.173 206.253 221.993V206.658C206.253 204.992 206.837 203.379 207.904 202.099L215.27 193.259C216.213 192.128 216.138 190.463 215.096 189.421L212.391 186.717C211.339 185.664 209.653 185.6 208.523 186.568L205.541 189.124H198.42C190.586 189.837 188.449 213.338 187.737 215.474C187.168 217.183 184.651 218.085 183.464 218.323Z" fill="white" stroke="black" strokeWidth="1.42431" strokeLinecap="round" strokeLinejoin="round"/>
<path d="M197.707 196.246L201.979 192.685" stroke="black" strokeWidth="1.42431" strokeLinecap="round" strokeLinejoin="round"/>
<path d="M201.268 202.655L214.799 189.124" stroke="black" strokeWidth="1.42431" strokeLinecap="round" strokeLinejoin="round"/>
<path d="M198.42 200.519L212.663 186.988" stroke="black" strokeWidth="1.42431" strokeLinecap="round" strokeLinejoin="round"/>
<path d="M150.707 199.807L147.858 229.717" stroke="black" strokeWidth="1.42431" strokeLinecap="round" strokeLinejoin="round"/>
<path d="M174.919 220.459L141.448 232.566" stroke="black" strokeWidth="1.42431" strokeLinecap="round" strokeLinejoin="round"/>
<path d="M196.283 189.124L195.571 181.291" stroke="black" strokeWidth="1.42431" strokeLinecap="round" strokeLinejoin="round"/>
<path d="M269.637 313.039L318.775 281.704" stroke="black" strokeWidth="1.42431" strokeLinecap="round"/>
<path d="M244.71 271.022L246.846 261.052" stroke="black" strokeWidth="1.42431" strokeLinecap="round"/>
<path d="M244.71 271.022L238.301 261.052" stroke="black" strokeWidth="1.42431" strokeLinecap="round"/>
<path d="M615 349H202.417C202.417 347.86 202.417 331.185 202.417 322.99H92.6121V297H0" stroke="black" strokeWidth="1.42431" strokeLinejoin="round"/>
</svg>
