<svg width="16" height="16" viewBox="0 0 16 16" fill="none" xmlns="http://www.w3.org/2000/svg">
<path fillRule="evenodd" clipRule="evenodd" d="M12.7407 0.272949H3.25973C1.61323 0.272949 0.272949 1.61232 0.272949 3.25973V12.7407C0.272949 14.3881 1.61323 15.7275 3.25973 15.7275H12.7407C14.3872 15.7275 15.7275 14.3881 15.7275 12.7407V3.25973C15.7275 1.61232 14.3872 0.272949 12.7407 0.272949ZM13.5978 2.05211L13.9394 2.05029V4.66997L11.3279 4.67815L11.3188 2.05847L13.5978 2.05211ZM5.79458 6.41087C6.28889 5.72574 7.09215 5.27686 7.9999 5.27686C8.90766 5.27686 9.71092 5.72574 10.2052 6.41087C10.5278 6.85793 10.7204 7.40495 10.7204 7.99739C10.7204 9.49669 9.50011 10.717 7.9999 10.717C6.50061 10.717 5.28027 9.49669 5.28027 7.99739C5.28027 7.40495 5.47291 6.85793 5.79458 6.41087ZM14 12.1031C14 13.1493 13.3594 14 12.5716 14H3.42836C2.64057 14 2 13.1493 2 12.1031V4H4.22579C4.03301 4.62842 3.92522 5.31386 3.92522 6.03189C3.92522 9.01571 5.75318 11.4444 8 11.4444C10.2477 11.4444 12.0757 9.01571 12.0757 6.03189C12.0757 5.31386 11.9661 4.62842 11.7751 4H14V12.1031V12.1031Z" fill="white"/>
</svg>
