<svg width="28" height="39" viewBox="0 0 28 39" fill="none" xmlns="http://www.w3.org/2000/svg">
<path fillRule="evenodd" clipRule="evenodd" d="M0.000976562 6.08683L6.59183 0.00811768H21.0336L27.5856 6.08683V32.3756C27.5856 32.3756 26.1707 33.6909 25.8647 33.9755C25.2549 34.5423 24.6061 35.1454 24.1437 35.5753C23.1803 36.4708 20.7018 38.7749 20.7018 38.7749H6.56096L0.000976562 32.3756V6.08683Z" fill="#AED32F"/>
<path fillRule="evenodd" clipRule="evenodd" d="M0.000976562 6.08683L6.59183 0.00811768H21.0336L0.000976562 17.8413V6.08683Z" fill="#9AA6A9"/>
<path fillRule="evenodd" clipRule="evenodd" d="M0.000976562 6.08683L6.59183 0.00811768V38.8514L0.000976562 32.4381V6.08683Z" fill="#F7EF22"/>
<path fillRule="evenodd" clipRule="evenodd" d="M13.7911 19.2343C9.1944 14.8518 0.000976562 6.08683 0.000976562 6.08683L6.59183 0.00811768H13.7911L22.7749 13.6106L27.5813 32.3818C27.5813 32.3818 18.3878 23.6168 13.7911 19.2343Z" fill="#08E8E1"/>
<path fillRule="evenodd" clipRule="evenodd" d="M6.65006 0.369045L6.60011 0L6.51228 0.081L0 6.08673C0 6.08673 2.19726 8.17532 3.29589 9.21962C4.39452 10.2639 6.60011 12.3511 6.60011 12.3511L6.65006 0.369045Z" fill="#F24523"/>
<path fillRule="evenodd" clipRule="evenodd" d="M6.57225 11.5141C6.57881 7.67876 6.5708 0.00811768 6.5708 0.00811768H13.7912L16.4046 4.04528L6.5708 12.3579C6.5708 12.3579 6.57176 11.7953 6.57225 11.5141Z" fill="#D21D4E"/>
<path fillRule="evenodd" clipRule="evenodd" d="M0.0078125 17.7338V6.09766L6.59833 12.3441L0.0078125 17.7338Z" fill="#FCA71B"/>
<path fillRule="evenodd" clipRule="evenodd" d="M17.103 22.3833L20.8128 38.9193L6.58496 12.3594L17.103 22.3833Z" fill="#23ACE2"/>
<path fillRule="evenodd" clipRule="evenodd" d="M21.2586 0.0078125H13.793L16.4024 4.04742L21.2586 0.0078125Z" fill="#B0133E"/>
<path fillRule="evenodd" clipRule="evenodd" d="M21.2586 0.0078125L27.6015 6.09026L22.7405 13.6496L16.4023 4.04742L21.2586 0.0078125Z" fill="#1BADA9"/>
<path fillRule="evenodd" clipRule="evenodd" d="M24.143 35.5805C25.2946 34.5123 27.5978 32.3758 27.5978 32.3758L27.5739 6.08594L6.57031 38.7851H20.6881C20.6881 38.7851 22.9914 36.6487 24.143 35.5805Z" fill="#5B973A"/>
<path fillRule="evenodd" clipRule="evenodd" d="M22.7266 13.6321L27.5879 6.0625V27.8859V32.3913L22.7266 13.6321Z" fill="#01507A"/>
<path fillRule="evenodd" clipRule="evenodd" d="M22.7273 13.625L17.0977 22.391L27.5859 32.394L22.7273 13.625Z" fill="#178BA3"/>
<path fillRule="evenodd" clipRule="evenodd" d="M20.6882 38.7796L14.293 26.7621L17.1066 22.3906L27.5967 32.3732L20.6882 38.7796Z" fill="#10628C"/>
</svg>
