<svg width="21" height="12" viewBox="0 0 21 12" fill="none" xmlns="http://www.w3.org/2000/svg">
<path fillRule="evenodd" clipRule="evenodd" d="M11.5611 11.1289C11.5611 11.1289 11.9097 11.0909 12.0883 10.9026C12.2518 10.7301 12.2461 10.4046 12.2461 10.4046C12.2461 10.4046 12.2244 8.88446 12.9434 8.66001C13.652 8.43928 14.5619 10.13 15.5276 10.7802C16.257 11.2718 16.8107 11.1642 16.8107 11.1642L19.3911 11.1289C19.3911 11.1289 20.7403 11.0473 20.1007 10.0058C20.0477 9.92044 19.7274 9.23504 18.1826 7.82715C16.5641 6.35341 16.7814 6.59177 18.7297 4.04217C19.9164 2.48959 20.3907 1.54172 20.2424 1.13642C20.1016 0.74874 19.2286 0.851689 19.2286 0.851689L16.3241 0.86931C16.3241 0.86931 16.1087 0.840559 15.949 0.934233C15.7931 1.02605 15.692 1.2403 15.692 1.2403C15.692 1.2403 15.2328 2.44136 14.6196 3.46343C13.3261 5.61886 12.8092 5.73293 12.5976 5.59938C12.1053 5.28682 12.2281 4.34545 12.2281 3.67675C12.2281 1.58717 12.5513 0.716279 11.5998 0.490905C11.2842 0.41578 11.0518 0.366625 10.2439 0.358278C9.20744 0.348075 8.33062 0.361987 7.83363 0.600346C7.50293 0.758942 7.24782 1.11323 7.40372 1.13364C7.59552 1.15868 8.03016 1.24864 8.2607 1.55656C8.55833 1.95444 8.54794 2.84666 8.54794 2.84666C8.54794 2.84666 8.71896 5.3063 8.14826 5.61144C7.7571 5.82104 7.22042 5.39348 6.06675 3.43746C5.47622 2.4358 5.03025 1.32841 5.03025 1.32841C5.03025 1.32841 4.94427 1.12158 4.79026 1.01029C4.60412 0.875803 4.34429 0.834067 4.34429 0.834067L1.58437 0.851689C1.58437 0.851689 1.16958 0.862818 1.01746 1.03996C0.882345 1.19671 1.00707 1.52225 1.00707 1.52225C1.00707 1.52225 3.16794 6.48511 5.61511 8.98648C7.85914 11.2792 10.4065 11.1289 10.4065 11.1289H11.5611Z" fill="white"/>
</svg>
