<svg width="16" height="16" viewBox="0 0 16 16" fill="none" xmlns="http://www.w3.org/2000/svg">
<rect width="16" height="16" rx="5" fill="white"/>
<path fillRule="evenodd" clipRule="evenodd" d="M7.8359 0C7.80308 3.29026 7.58974 5.13641 6.35897 6.35897C5.13641 7.58974 3.29026 7.80308 0 7.8359V8.32C3.29026 8.35282 5.13641 8.56615 6.35897 9.79692C7.56513 11.0031 7.79487 12.8082 7.8359 16H8.32C8.36103 12.8 8.59077 11.0031 9.79693 9.79692C11.0031 8.59077 12.8082 8.36103 16 8.32V7.8359C12.8082 7.79487 11.0031 7.56513 9.79693 6.35897C8.56616 5.13641 8.35282 3.29026 8.32 0H7.8359V0Z" fill="#2F3E6D"/>
</svg>
